<svg width="24" height="24" fill="none" xmlns="http://www.w3.org/2000/svg"><g clip-path="url(#a)"><path d="M19.91 24H4.09A4.09 4.09 0 0 1 0 19.91V4.09A4.09 4.09 0 0 1 4.09 0h15.82A4.09 4.09 0 0 1 24 4.09v15.82A4.09 4.09 0 0 1 19.91 24Z" fill="url(#b)"/><path d="m18.818 4.983-8.773 14.203a.471.471 0 0 1-.784.026l-4.46-6.242c-.16-.225.1-.51.338-.37l4.224 2.478L18.407 4.68c.207-.237.576.035.41.302Z" fill="#F9F9F9"/></g><defs><linearGradient id="b" x1="-3" y1="19.5" x2="25" y2="4" gradientUnits="userSpaceOnUse"><stop stop-color="#50AF95"/><stop offset="1" stop-color="#3468D1"/></linearGradient><clipPath id="a"><path fill="#fff" d="M0 0h24v24H0z"/></clipPath></defs></svg>