<svg id="tg" viewBox="0 0 16 15" xmlns="http://www.w3.org/2000/svg">
    <g filter="url(#filter0_b_4370_2428)">
    <path fill-rule="evenodd" clip-rule="evenodd" d="M12.1413 14.3997L6.30168 9.9581L4.17825 8.93995L0.6037 7.7461C0.6037 7.7461 0.0551318 7.55306 0.00200173 7.13172C-0.0510177 6.71038 0.62141 6.4822 0.62141 6.4822L14.831 0.952208C14.831 0.952208 15.999 0.443133 15.999 1.28581L13.4685 13.9432C13.4685 13.9432 13.1146 14.821 12.1413 14.3997ZM4.4 8.276L0.924706 7.11531L15.0849 1.60455L15.0979 1.59948L15.1078 1.59518L15.1083 1.59496L15.1085 1.59488L15.1104 1.59406L15.1107 1.59396C15.1146 1.59238 15.122 1.58938 15.1324 1.58538C15.1534 1.5773 15.1854 1.56563 15.2242 1.55337L15.2322 1.55089L12.802 13.7061C12.7831 13.7341 12.7597 13.7613 12.7347 13.7811C12.711 13.7999 12.6905 13.809 12.6653 13.8124C12.6448 13.8152 12.5892 13.8187 12.4883 13.7841L6.72544 9.40094L6.66866 9.35775L6.60433 9.32691L4.48089 8.30876L4.44147 8.28985L4.4 8.276ZM0.675088 6.98117C0.675207 6.98115 0.676208 6.9823 0.677734 6.98466C0.675732 6.98238 0.674969 6.98119 0.675088 6.98117ZM15.5179 1.50084C15.5178 1.50091 15.5163 1.50078 15.5136 1.50026C15.5165 1.50051 15.5179 1.50077 15.5179 1.50084ZM6.43388 13.5847L8.57101 11.7238L6.18402 9.94238L5.71387 13.9137C5.95087 14.0121 6.17861 13.8105 6.37776 13.6342C6.39673 13.6174 6.41545 13.6008 6.43388 13.5847Z"/>
    </g>
    <path d="M5.68625 13.9426C5.68625 13.9426 5.51451 13.9261 5.3005 13.2296C5.0866 12.5333 3.99902 8.86816 3.99902 8.86816L12.6462 3.22392C12.6462 3.22392 13.1455 2.91236 13.1276 3.22392C13.1276 3.22392 13.2167 3.27883 12.9493 3.53536C12.6819 3.79201 6.15632 9.82106 6.15632 9.82106" fill="#85878E"/>
    <defs>
    <filter id="filter0_b_4370_2428" x="-3.97778" y="-3.177" width="23.9536" height="21.668" filterUnits="userSpaceOnUse" color-interpolation-filters="sRGB">
    <feFlood flood-opacity="0" result="BackgroundImageFix"/>
    <feGaussianBlur in="BackgroundImageFix" stdDeviation="1.9884"/>
    <feComposite in2="SourceAlpha" operator="in" result="effect1_backgroundBlur_4370_2428"/>
    <feBlend mode="normal" in="SourceGraphic" in2="effect1_backgroundBlur_4370_2428" result="shape"/>
    </filter>
    </defs>
</svg>