<svg fill="none" height="16" viewBox="0 0 16 16" width="16" xmlns="http://www.w3.org/2000/svg">
    <clipPath id="a">
        <path d="m0 0h16v16h-16z"/>
    </clipPath>
    <g clip-path="url(#a)">
        <path clip-rule="evenodd" d="m6.30168 9.95834 5.83962 4.44156c.9733.4213 1.3272-.4565 1.3272-.4565l2.5305-12.65735c0-.842673-1.168-.333598-1.168-.333598l-14.20959 5.529988s-.6724277.22819-.61940827.64953c.05313007.42133.60169827.61438.60169827.61438l3.39925 1.1353c.07129.24021 1.09115 3.67625 1.29755 4.34825.21401.6964.38575.7129.38575.7129l.46279-4.05764zm.35979-.60379.00719.00345.05678.04319 5.76286 4.38311c.1009.0346.1565.0311.177.0284.0252-.0034.0457-.0125.0694-.0313.025-.0198.0484-.0471.0673-.075l2.4302-12.15527-.008.00249c-.0388.01226-.0708.02392-.0918.03201-.0104.004-.0178.00699-.0217.00857l-.0022.00092-.0106.00461-.013.00506-14.160194 5.51076 3.475294 1.16069.04147.01386.03942.0189.21629.1037 7.94902-5.18854s.4993-.31155.4814 0c0 0 .0891.05491-.1783.31145-.2219.21291-4.75086 4.39867-6.28783 5.81894zm1.90954 2.36975-2.13713 1.8609c-.01843.0161-.03715.0327-.05612.0494-.19915.1763-.42689.3779-.66389.2795l.47015-3.97123z" fill="#85878E" fill-rule="evenodd"/>
    </g>
</svg>